<?xml version="1.0" encoding="UTF-8" standalone="no"?><!DOCTYPE svg PUBLIC "-//W3C//DTD SVG 1.1//EN" "http://www.w3.org/Graphics/SVG/1.1/DTD/svg11.dtd"><svg width="100%" height="100%" viewBox="0 0 318 249" version="1.1" xmlns="http://www.w3.org/2000/svg" xmlns:xlink="http://www.w3.org/1999/xlink" xml:space="preserve" xmlns:serif="http://www.serif.com/" style="fill-rule:evenodd;clip-rule:evenodd;stroke-linecap:round;stroke-linejoin:round;stroke-miterlimit:1.5;"><path d="M124.134,68.692c0.795,-4.371 -1.68,-48.631 9.757,-55.218c26.18,-15.08 52.616,-4.842 62.948,-1.796c5.41,1.595 -0.739,24.043 -5.776,21.507c-7.036,-3.541 -28.955,-8.26 -35.137,-6.688c-3.946,1.004 -0.911,34.577 -0.911,38.649" style="fill:#ffa446;stroke:#000;stroke-width:10.9px;"/><path d="M51.523,49.591c-23.566,2.575 -30.066,26.215 -35.194,44.279c-7.219,25.432 -18.002,71.135 -2.626,109.327c6.487,16.113 23.023,32.187 35.474,37.022c11.106,4.312 40.009,-10.87 41.469,-9.642c0.991,0.834 11.33,14.538 25.606,11.119c24.024,-5.752 26.648,-21.226 29.403,-19.676c1.836,1.033 22.955,18.62 38.974,16.767c26.194,-3.031 29.162,-19.735 32.129,-19.696c4.893,0.064 23.385,26.966 62.387,11.524c13.326,-5.276 28.719,-15.652 30.995,-29.803c9.55,-59.38 -35.927,-118.537 -50.497,-144.896c-4.942,-8.941 -20.629,-15.414 -29.548,-14.019c-23.869,3.733 -22.253,24.477 -25.416,25.479c-3.768,1.194 -5.856,-25.994 -38.386,-22.729c-20.474,2.055 -24.43,19.725 -24.43,19.725c0,0 -15.352,-12.289 -37.957,-9.791c-8.542,0.944 -20.913,7.175 -24.074,14.353c-0.694,1.576 -8.045,-21.558 -28.308,-19.344Z" style="fill:#ff8a08;"/><path d="M88.699,237.092c-6.267,2.31 -20.233,8.412 -31.07,9.574c-6.827,0.732 -10.059,-0.701 -12.15,-1.623c-13.683,-6.036 -30.381,-22.668 -37.223,-39.649c-17.18,-42.636 -3.307,-93.411 3.666,-117.48c4.373,-15.095 11.001,-34.904 29.448,-41.912c4.362,-1.657 8.093,-2.086 9.516,-2.249c5.453,-0.558 18.425,-0.809 29.391,15.136c0.016,0.023 0.032,0.047 0.048,0.07c1.774,-1.564 4.061,-3.228 7.006,-4.857c5.284,-2.922 11.126,-4.831 15.931,-5.357c16.034,-1.756 28.693,3.134 35.854,6.976c3.946,-7.076 11.942,-15.495 26.8,-16.937c21.947,-2.13 32.268,8.299 37.485,16.286c2.887,-6.554 8.593,-14.698 21.384,-18.06c0.345,-0.091 3.452,-0.904 6.045,-1.104c10.767,-0.829 26.827,5.912 33.272,16.025c1.065,1.671 0.978,1.993 6.804,11.48c18.445,30.036 53.834,83.673 45.033,138.343c-3.333,20.703 -28.749,34.102 -46.583,38.024c-27.181,5.977 -43.889,-7.51 -51.398,-13.205c-3.064,4.357 -8.992,11.735 -21.576,15.736c-0.264,0.084 -4.852,1.627 -11.199,2.33c-14.337,1.589 -30.578,-8.969 -39.037,-15.029c-3.292,4.336 -9.586,11.57 -22.476,16.042c-0.885,0.307 -5.146,1.742 -8.4,2.21c-5.339,0.768 -10.874,-0.164 -16.328,-2.993c-4.56,-2.366 -8.059,-5.54 -10.244,-7.775Zm-36.544,-181.661c-12.268,1.369 -19.799,9.436 -25.557,25.159c-1.108,3.024 -2.314,6.627 -5.124,16.683c-6.774,24.238 -16.774,67.854 -2.322,103.729c5.92,14.695 21.243,29.44 32.035,33.696c0.871,0.343 4.25,1.374 15.167,-1.956c9.599,-2.928 18.552,-7.162 22.297,-7.925c1.586,-0.323 4.087,-0.448 6.224,1.675c1.03,1.023 5.475,6.658 11.727,8.94c4.534,1.655 7.754,0.707 9.536,0.237c15.58,-4.112 20.035,-12.602 22.934,-16.193c0.76,-0.941 2.86,-3.526 6.369,-3.437c2.193,0.056 3.616,1.159 4.432,1.75c3.22,2.334 18.531,14.185 30.806,15.197c1.698,0.14 2.954,0.059 5.436,-0.327c16.948,-2.639 21.249,-11.688 24.198,-15.651c0.739,-0.993 3.133,-4.285 7.387,-3.728c4.308,0.564 7.623,4.764 14.924,9.306c8.579,5.337 23.039,11.339 45.228,2.217c11.967,-4.92 24.722,-13.927 26.489,-24.929c9.114,-56.741 -34.946,-114.353 -49.66,-140.791c-0.199,-0.358 -1.638,-3.502 -7.234,-6.864c-5.464,-3.282 -12.352,-5.173 -16.567,-4.499c-14.705,2.351 -16.877,12.01 -18.902,18.34c-0.662,2.07 -1.716,5.336 -4.938,6.699c-2.204,0.933 -5.764,0.959 -8.5,-2.679c-2.505,-3.331 -4.551,-10.298 -10.855,-15.072c-2.858,-2.165 -8.935,-5.747 -20.908,-4.506c-3.415,0.354 -11.954,1.701 -17.119,10.445c-1.246,2.11 -1.85,3.925 -2.05,4.659c-0.145,0.532 -0.12,0.54 -0.334,1.048c-0.148,0.351 -1.013,2.403 -3.474,3.264c-0.36,0.126 -2.462,0.861 -4.751,-0.388c-0.66,-0.36 -0.625,-0.413 -1.237,-0.851c-1.845,-1.321 -14.861,-10.296 -33.262,-8.258c-6.593,0.73 -15.859,5.429 -18.85,9.99c-0.524,0.798 -0.532,1.124 -1.006,1.828c-2.185,3.252 -7.036,3.731 -9.827,0.198c-1.361,-1.723 -3.06,-5.825 -6.618,-9.95c-6.223,-7.216 -12.297,-7.443 -16.084,-7.057c-0,0 -0.005,0.001 -0.005,0.001l0,0l-0.006,0.001Z"/><path d="M210.792,70.323c0.557,-7.29 3.02,-15.296 12.732,-20.218c10.106,-5.123 24.09,-2.549 28.293,3.099c30.054,40.392 49.1,84.179 54.376,123.542c2.92,21.785 -6.425,38.115 -20.202,45.737c-41.79,23.12 -67.552,-7.153 -67.552,-7.153c0,0 -9.765,-117.258 -7.645,-145.007Z" style="fill:#ffa446;"/><path d="M80.646,78.286c-2.676,27.879 4.883,116.235 10.554,145.723c1.706,8.873 15.039,14.153 23.98,12.895c8.941,-1.258 25.459,-9.989 27.376,-21.462c4.926,-29.488 8.064,-111.479 0.652,-139.444c-3.748,-14.139 -26.12,-15.45 -36.717,-15.45c-8.531,0 -24.936,8.266 -25.845,17.738Z" style="fill:#ffab4d;"/><path d="M109.797,85.152c-3.548,-0.335 -35.853,30.01 -35.705,36.284c0.066,2.788 37.382,2.614 40.474,1.069c2.112,-1.056 -1.651,-37.058 -4.768,-37.353Z" style="stroke:#000;stroke-width:0.24px;"/><path d="M182.873,85.152c-3.694,2.445 -2.765,34.552 -0.897,35.686c2.442,1.483 43.837,-2.653 44.352,-8.857c0.316,-3.809 -40.716,-28.642 -43.454,-26.829Z" style="stroke:#000;stroke-width:0.24px;"/><path d="M138.786,156.104c5.439,1.823 29.541,0.161 32.31,-3.048c2.056,-2.382 -5.236,-30.321 -18.767,-29.405c-13.401,0.907 -16.432,31.485 -13.543,32.453Z" style="stroke:#000;stroke-width:0.24px;"/><path d="M56.484,168.997l34.571,12.716l20.266,-7.947l28.61,11.524l22.65,-9.139l21.06,11.126l21.259,-17.087l16.093,1.192l27.418,-29.405l-6.481,50.863l-24.911,-0.397l-27.418,19.074l-26.226,-11.126l-27.021,9.139l-25.829,-14.305l-19.868,4.371l-34.174,-30.597Z" style="stroke:#000;stroke-width:0.24px;"/></svg>